<svg xmlns="http://www.w3.org/2000/svg" viewBox="0 0 96 120" x="0px" y="0px"><title>Artboard 36</title><g><path d="M73.707,59.8875A184.0739,184.0739,0,0,1,48,61.4968a184.0739,184.0739,0,0,1-25.707-1.6093A1.9976,1.9976,0,0,0,20,61.864V73.5833a1.999,1.999,0,0,0,1.6094,1.9608l20,5.9123a1.974,1.974,0,0,0,1.9922-.7617L48,74.8279l4.3984,5.8668A2,2,0,0,0,54,81.4955a1.896,1.896,0,0,0,.3906-.0391l20-5.9123A1.999,1.999,0,0,0,76,73.5833V61.864a1.9976,1.9976,0,0,0-2.293-1.9765Z"/><path d="M74.8711,39.2522,70.6445,18.7614A6.0122,6.0122,0,0,0,64.6875,13.5H57.625a6.1221,6.1221,0,0,0-3.9844,1.539l-4.3867,4.8981a2.7291,2.7291,0,0,1-2.27.2226L42.125,14.82a6.0033,6.0033,0,0,0-3.75-1.32H31.3125a5.9622,5.9622,0,0,0-5.93,5.1051L21.1289,39.2522C14.7852,40.33,8,42.7715,8,46.4978c0,7.3472,29.6211,8.9994,40,8.9994s40-1.6522,40-8.9994C88,42.7715,81.2148,40.33,74.8711,39.2522Z"/></g><text x="0" y="111" fill="#000000" font-size="5px" font-weight="bold" font-family="'Helvetica Neue', Helvetica, Arial-Unicode, Arial, Sans-serif">Created by Deemak Daksina</text><text x="0" y="116" fill="#000000" font-size="5px" font-weight="bold" font-family="'Helvetica Neue', Helvetica, Arial-Unicode, Arial, Sans-serif">from the Noun Project</text></svg>